<svg width="81" height="68" viewBox="0 0 81 68" fill="none" xmlns="http://www.w3.org/2000/svg">
<path d="M41.7333 61.3196C41.5617 60.7656 41.2995 60.2556 40.9653 59.8037C40.0267 58.5344 38.5237 57.7271 36.8639 57.7275C36.7021 57.7275 36.5381 57.7351 36.3734 57.7508C35.95 57.7911 35.5467 57.8876 35.1629 58.0224C34.6144 58.2152 34.1107 58.4948 33.6695 58.8481C33.2989 59.1451 32.9734 59.4921 32.699 59.8777C32.0119 60.843 31.652 62.0477 31.7732 63.3198C32.0251 65.9633 34.2493 67.9433 36.8518 67.9433C37.0136 67.9433 37.1776 67.9356 37.3423 67.92C40.0271 67.6643 42.022 65.3727 41.9588 62.7181C41.956 62.5962 41.9543 62.4743 41.9425 62.351C41.9084 61.9935 41.8355 61.6496 41.7333 61.3196Z" fill="#2D2D2C"/>
<path d="M68.86 56.1388C68.4831 55.8313 68.0639 55.5767 67.6116 55.3863C67.0516 55.1505 66.4441 55.0136 65.8108 54.9924C65.7535 54.9903 65.6972 54.9844 65.6396 54.9844C65.4777 54.9844 65.3137 54.9921 65.1491 55.0077C63.439 55.1706 62.0103 56.1613 61.212 57.5435C60.9042 58.0764 60.693 58.6669 60.594 59.2922C60.528 59.7083 60.5072 60.1377 60.5489 60.5767C60.5541 60.632 60.5652 60.6848 60.5722 60.7397C60.8987 63.3005 63.0791 65.2006 65.6274 65.2006C65.7893 65.2006 65.9533 65.1929 66.1179 65.1773C68.926 64.9098 70.9856 62.4164 70.7181 59.6083C70.5837 58.1927 69.8806 56.9717 68.86 56.1388Z" fill="#2D2D2C"/>
<path d="M22.9314 29.9732L22.0428 20.6466C21.6121 16.1246 17.7935 12.7266 13.3395 12.7266C13.0633 12.7266 12.7837 12.7398 12.503 12.7666L4.1495 13.5624C1.93294 13.7736 0.307256 15.7418 0.518456 17.9584C0.717152 20.045 2.47275 21.6078 4.52709 21.6078C4.65493 21.6078 4.7845 21.6016 4.91441 21.5894L13.2679 20.7936C13.2898 20.7915 13.3117 20.7905 13.3336 20.7905C13.6827 20.7905 13.9821 21.0572 14.0158 21.4116L14.9044 30.7381C15.0691 32.4662 15.3674 34.1496 15.7846 35.7812C16.2703 35.2834 16.8802 34.9009 17.5788 34.6852L23.3858 32.8925C23.1791 31.94 23.0259 30.9663 22.9314 29.9732Z" fill="#DFDFD6"/>
<path d="M80.3503 24.5035L79.8897 19.6712C79.691 17.5846 77.9354 16.0218 75.8811 16.0218C75.7529 16.0218 75.624 16.028 75.4937 16.0402C73.2768 16.2514 71.6515 18.2196 71.8627 20.4362L72.323 25.2684C72.389 25.96 72.4181 26.6464 72.4265 27.329C72.5328 35.8628 68.2417 43.6074 61.5163 48.1698C58.1857 50.4294 54.2608 51.9095 49.9791 52.3177C49.1819 52.3938 48.3923 52.4306 47.6073 52.4306C44.4817 52.4306 41.4672 51.8387 38.6803 50.7556C36.026 49.7242 33.5823 48.2424 31.4452 46.4017L30.763 48.3619C30.1586 50.098 28.5798 51.22 26.7408 51.22C24.9727 51.22 23.4158 50.155 22.7742 48.5064L21.3278 44.7895L18.875 43.548C21.9683 49.1087 26.6147 53.6401 32.1716 56.6129C33.3092 55.7535 34.6605 55.2155 36.1156 55.0769C36.3626 55.0532 36.6134 55.0414 36.8614 55.0414H36.8618C40.275 55.0414 43.1776 57.2135 44.227 60.3148C45.339 60.4302 46.4638 60.4941 47.601 60.4941C48.64 60.4941 49.6887 60.4448 50.7437 60.3444C53.2468 60.1057 55.6541 59.5819 57.9467 58.8236C58.167 57.4789 58.7311 56.2089 59.6221 55.1304C60.948 53.5248 62.82 52.532 64.8927 52.3347C65.1397 52.3111 65.3905 52.2993 65.6385 52.2993C66.6966 52.2993 67.7043 52.5122 68.6256 52.8923C76.6897 46.1717 81.4188 35.7187 80.3503 24.5035Z" fill="#DFDFD6"/>
<path d="M69.5547 24.6283C68.1295 23.6613 66.4482 22.9186 64.5387 22.4191C68.8079 19.7506 70.759 15.7482 70.3252 11.1952C69.6179 3.77054 62.7998 -1.02211 49.2816 0.265931L31.8999 1.92184C27.0319 2.38558 23.4613 6.70824 23.9253 11.5763L25.7935 31.1828C25.8432 31.4878 25.8994 31.7911 25.9616 32.0923L29.6323 30.9588C30.0456 30.8313 30.4715 30.7663 30.8981 30.7663C32.2667 30.7663 33.5621 31.4389 34.3627 32.5654C35.1693 33.7002 35.3684 35.1074 34.9092 36.4267L32.3966 43.6451C32.5262 43.768 32.6537 43.8927 32.7867 44.0129C36.8725 47.7058 42.1334 49.7393 47.6003 49.7393C48.302 49.7393 49.0144 49.7053 49.7172 49.6382C55.5887 49.079 60.8972 46.2587 64.6648 41.6977C68.4324 37.1368 70.1994 31.3913 69.6398 25.5197L69.5547 24.6283ZM40.4365 12.7709L48.1411 12.0369C51.8531 11.6833 53.6542 12.7837 53.8814 15.1653C54.1083 17.5469 52.5472 18.9676 48.8352 19.3212L41.1305 20.0552L40.4365 12.7709ZM52.8522 37.7394L42.9059 38.6871L42.1719 30.9821L52.1182 30.0344C55.76 29.6874 57.708 30.8449 57.9484 33.3664C58.1884 35.888 56.494 37.3924 52.8522 37.7394Z" fill="#7B7B75"/>
<path d="M30.901 33.1976C30.7225 33.1976 30.5384 33.2244 30.3525 33.2817L18.2905 37.0058C16.7214 37.4904 16.5394 39.6382 18.0046 40.3798L22.6291 42.7208C23.0307 42.924 23.343 43.2682 23.5062 43.6878L25.0367 47.6208C25.3396 48.3992 26.0385 48.7844 26.7371 48.7844C27.4586 48.7844 28.1794 48.3732 28.4628 47.5586L32.616 35.6268C33.0439 34.3964 32.0967 33.1976 30.901 33.1976Z" fill="#FFD700"/>
</svg>
